Coordinates
version=1
nRows=4
nColumns=107
inDegrees=yes

Units are S.I. units (second, meters, Newtons, ...)
If the header above contains a line with 'inDegrees', this indicates whether rotational values are in degrees (yes) or radians (no).

endheader
time	sternoclavicular_r2	sternoclavicular_r3	unrotscap_r3	unrotscap_r2	acromioclavicular_r2	acromioclavicular_r3	acromioclavicular_r1	unrothum_r1	unrothum_r3	unrothum_r2	elv_angle	shoulder_elv	shoulder1_r2	shoulder_rot	elbow_flexion	pro_sup	deviation	flexion	proximal_distal_r1	proximal_distal_r3	cmc_flexion	cmc_abduction	mp_flexion	ip_flexion	mcp2_flexion	mcp2_abduction	pm2_flexion	md2_flexion	mcp3_flexion	mcp3_abduction	pm3_flexion	md3_flexion	mcp4_flexion	mcp4_abduction	pm4_flexion	md4_flexion	mcp5_flexion	mcp5_abduction	pm5_flexion	md5_flexion	bicpt_tx	bicpt_ty	bicpt_tz	bicpt2_tx	bicpt2_ty	bicpt2_tz	ptpt_tx	ptpt_ty	ptpt_tz	FCUpt_tx	FCUpt_ty	FCUpt_tz	EDCpt_tx	EDCpt_ty	EDCpt_tz	APLpt_tx	APLpt_ty	APLpt_tz	FPLpt_tx	FPLpt_ty	FPLpt_tz	FPLpt2_tx	FPLpt2_ty	FPLpt2_tz	PEC1pt2_tx	PEC1pt2_ty	PEC1pt2_tz	PEC1pt3_tx	PEC1pt3_ty	PEC1pt3_tz	PEC2pt2_tx	PEC2pt2_ty	PEC2pt2_tz	PEC2pt3_tx	PEC2pt3_ty	PEC2pt3_tz	PEC3pt2_tx	PEC3pt2_ty	PEC3pt2_tz	PEC3pt3_tx	PEC3pt3_ty	PEC3pt3_tz	DELT2pt2a_tx	DELT2pt2a_ty	DELT2pt2a_tz	DELT2pt2_tx	DELT2pt2_ty	DELT2pt2_tz	LAT1pt2_tx	LAT1pt2_ty	LAT1pt2_tz	LAT1pt3_tx	LAT1pt3_ty	LAT1pt3_tz	LAT2pt2_tx	LAT2pt2_ty	LAT2pt2_tz	LAT2pt3_tx	LAT2pt3_ty	LAT2pt3_tz	LAT3pt2_tx	LAT3pt2_ty	LAT3pt2_tz	LAT3pt3_tx	LAT3pt3_ty	LAT3pt3_tz
      1.30000000	     -0.32597208	      0.13806639	     -0.13806639	      0.32597208	     -0.06600272	      0.53341073	      0.23976445	     -0.23976445	     -0.53341073	      0.06600272	     98.68597242	     77.17678788	     -1.72239514	    -20.67669682	     29.91910559	     57.38407090	      0.28052434	     -0.14338106	      0.31629961	     -0.07169053	     33.64015521	     -5.60516569	     -9.70765346	      5.99707837	    -19.03705965	     12.27791527	     21.40648678	      3.54575129	    -24.50458330	     -0.32092426	     11.89472457	     13.37661929	    -16.59590875	     -2.76541055	      3.23237946	     20.05329981	    -12.71068720	    -14.09468002	     -5.71700224	      5.12503540	      0.00088963	     -0.03102919	     -0.00485235	      0.01626121	     -0.01832767	     -0.00540240	      0.00330996	     -0.06764168	     -0.00467259	      0.00957708	     -0.18309053	     -0.00039603	     -0.00688607	      0.00213404	     -0.00006027	      0.00012949	      0.00005179	      0.00025897	      0.00016574	      0.00049723	      0.00027969	     -0.00001215	     -0.00021230	     -0.00025477	      0.00252969	      0.00887534	      0.00617415	     -0.00827507	      0.01998023	     -0.01895121	      0.00252969	      0.00887534	      0.00617415	      0.00055739	      0.01852244	     -0.00973286	      0.00398598	      0.00493546	      0.01605988	      0.00000000	      0.00796718	      0.00000000	     -0.00724605	     -0.03348618	     -0.00657033	      0.01416371	     -0.00045281	     -0.00353666	     -0.00090040	      0.01509236	     -0.00617415	      0.00248681	      0.02178102	     -0.01800793	     -0.00604552	      0.01307719	     -0.00553101	     -0.01260555	      0.02761216	     -0.03091362	     -0.02366757	      0.01462073	     -0.00741755	     -0.01569263	      0.03189977	     -0.03863130
      1.33333333	     -0.31546286	      0.13361518	     -0.13361518	      0.31546286	     -0.06387481	      0.51621376	      0.23203453	     -0.23203453	     -0.51621376	      0.06387481	    101.00824735	     74.68863548	     -1.76292649	    -32.95676371	     31.48918577	     74.42261353	      0.27425139	     -0.08009155	      0.31063470	     -0.04004577	     35.55170226	     -7.24928493	     -9.56454999	      4.77557711	    -21.80793282	     12.28491056	     22.49855352	      5.77770221	    -24.18494589	     -0.93643944	     12.62361169	     14.26395578	    -13.12575466	     -2.63110137	      5.41463270	     20.88840559	     -4.29940442	    -14.11796948	     -5.65854802	      5.10988271	      0.00094156	     -0.03120914	     -0.00488134	      0.01528332	     -0.01875419	     -0.00296468	      0.00205101	     -0.06845574	     -0.00604514	      0.01142872	     -0.18261076	     -0.00018461	     -0.00893069	      0.00296337	     -0.00042179	      0.00007657	      0.00003063	      0.00015315	      0.00009801	      0.00029404	      0.00016540	     -0.00001282	     -0.00018661	     -0.00022394	      0.00244813	      0.00858920	      0.00597510	     -0.00800829	      0.01933607	     -0.01834022	      0.00244813	      0.00858920	      0.00597510	      0.00053942	      0.01792529	     -0.00941907	      0.00389158	      0.00477635	      0.01582821	      0.00000000	      0.00745835	      0.00000000	     -0.00701244	     -0.03240660	     -0.00614789	      0.02013028	     -0.00085922	     -0.00899011	     -0.00087137	      0.01460579	     -0.00597510	      0.00240664	      0.02107881	     -0.01742736	     -0.00585061	      0.01265559	     -0.00535269	     -0.01219915	      0.02672196	     -0.02991697	     -0.02290453	      0.01414936	     -0.00717841	     -0.01518670	      0.03087133	     -0.03738584
      1.36666667	     -0.31470025	      0.13329217	     -0.13329217	      0.31470025	     -0.06372040	      0.51496585	      0.23147360	     -0.23147360	     -0.51496585	      0.06372040	    101.11857456	     74.50808072	     -1.76485206	    -33.69121358	     31.88550807	     78.11294632	      0.30820766	     -0.03933183	      0.34052989	     -0.01966592	     35.85990600	     -7.22904974	    -10.83816252	      4.47900571	    -22.22649896	     12.20448246	     23.14695845	      6.83529107	    -23.54327381	     -1.24120180	     13.18491290	     14.44521389	    -10.92793340	     -2.79725049	      8.16609852	     21.15666981	      1.26570925	    -14.16760151	     -6.06159715	      5.14182100	      0.00095467	     -0.03125457	     -0.00488866	      0.01498402	     -0.01886185	     -0.00238307	      0.00177833	     -0.06863205	     -0.00634242	      0.01184157	     -0.18249599	     -0.00011001	     -0.00937353	      0.00315480	     -0.00052082	      0.00003895	      0.00001558	      0.00007790	      0.00004985	      0.00014956	      0.00008413	     -0.00001285	     -0.00018209	     -0.00021851	      0.00244221	      0.00856844	      0.00596065	     -0.00798893	      0.01928933	     -0.01829589	      0.00244221	      0.00856844	      0.00596065	      0.00053811	      0.01788195	     -0.00939630	      0.00388464	      0.00476480	      0.01581082	      0.00000000	      0.00742210	      0.00000000	     -0.00699549	     -0.03232826	     -0.00611778	      0.02042321	     -0.00088494	     -0.00937592	     -0.00086926	      0.01457048	     -0.00596065	      0.00240082	      0.02102785	     -0.01738523	     -0.00583647	      0.01262499	     -0.00533975	     -0.01216966	      0.02665736	     -0.02984465	     -0.02284916	      0.01411515	     -0.00716106	     -0.01514999	      0.03079670	     -0.03729547
      1.40000000	     -0.31301923	      0.13258017	     -0.13258017	      0.31301923	     -0.06338003	      0.51221507	      0.23023715	     -0.23023715	     -0.51221507	      0.06338003	    101.50465649	     74.11008402	     -1.77159046	    -35.59677692	     32.26822053	     81.74185914	      0.31787634	     -0.04924516	      0.34869660	     -0.02462258	     36.01807095	     -6.88266214	    -11.46599594	      2.22654146	    -22.31946288	     12.12732319	     23.35468634	      8.04447623	    -22.88540304	     -1.44003930	     13.35508788	     14.73244454	     -8.76176882	     -2.76385213	      9.57270247	     21.85702798	      5.45209371	    -14.21041861	     -5.28324687	      5.12594776	      0.00096733	     -0.03129843	     -0.00489572	      0.01465933	     -0.01896582	     -0.00179253	      0.00151020	     -0.06880544	     -0.00663475	      0.01225164	     -0.18237936	     -0.00002666	     -0.00980900	      0.00334714	     -0.00062540	      0.00004836	      0.00001934	      0.00009671	      0.00006190	      0.00018569	      0.00010445	     -0.00001285	     -0.00017973	     -0.00021568	      0.00242917	      0.00852267	      0.00592881	     -0.00794625	      0.01918629	     -0.01819816	      0.00242917	      0.00852267	      0.00592881	      0.00053524	      0.01778644	     -0.00934611	      0.00386930	      0.00473935	      0.01577220	      0.00000000	      0.00734252	      0.00000000	     -0.00695812	     -0.03215557	     -0.00605168	      0.02114958	     -0.00095228	     -0.01040380	     -0.00086462	      0.01449265	     -0.00592881	      0.00238799	      0.02091553	     -0.01729237	     -0.00580529	      0.01255755	     -0.00531123	     -0.01210466	      0.02651496	     -0.02968523	     -0.02272711	      0.01403976	     -0.00712281	     -0.01506906	      0.03063219	     -0.03709625
